<svg width="23" height="23" viewBox="0 0 23 23" fill="none" xmlns="http://www.w3.org/2000/svg">
<path d="M19.575 2.90531C18.8875 2.21781 18.0603 1.87438 17.0934 1.875H5.38688C4.41938 1.875 3.59219 2.21844 2.90531 2.90531C2.21781 3.59281 1.87438 4.42 1.875 5.38688V17.0934C1.875 18.0609 2.21844 18.8881 2.90531 19.575C3.59281 20.2625 4.42 20.6059 5.38688 20.6053H8.11875C8.29688 20.6053 8.43094 20.5991 8.52094 20.5866C8.62576 20.5659 8.72036 20.51 8.78906 20.4281C8.87844 20.3344 8.92313 20.1984 8.92313 20.0203L8.91656 19.1906C8.91281 18.6619 8.91094 18.2431 8.91094 17.9344L8.62969 17.9831C8.45156 18.0156 8.22625 18.03 7.95375 18.0263C7.66941 18.0208 7.38597 17.9923 7.10625 17.9409C6.80822 17.8869 6.52772 17.7614 6.28875 17.5753C6.03792 17.3856 5.85086 17.124 5.7525 16.8253L5.63063 16.5441C5.52751 16.3224 5.39848 16.1138 5.24625 15.9225C5.07125 15.695 4.89438 15.5406 4.71563 15.4594L4.63125 15.3984C4.57266 15.356 4.51918 15.3069 4.47188 15.2522C4.42669 15.2013 4.38969 15.1438 4.36219 15.0816C4.33781 15.0241 4.35813 14.9772 4.42313 14.9409C4.48813 14.9034 4.60625 14.885 4.7775 14.8856L5.02125 14.9231C5.18375 14.955 5.38469 15.0522 5.62406 15.2147C5.866 15.3796 6.06809 15.5965 6.21563 15.8494C6.40313 16.1819 6.62875 16.4359 6.8925 16.6116C7.15688 16.7866 7.42313 16.8741 7.69125 16.8741C7.95938 16.8741 8.19125 16.8538 8.38688 16.8131C8.57633 16.7739 8.76044 16.7122 8.93531 16.6294C9.00844 16.085 9.2075 15.6663 9.5325 15.3731C9.11102 15.3315 8.69328 15.2581 8.28281 15.1538C7.88226 15.0439 7.49707 14.8842 7.13625 14.6784C6.75867 14.4729 6.42516 14.1951 6.15469 13.8609C5.89469 13.5359 5.68125 13.1094 5.51438 12.5813C5.34813 12.0525 5.265 11.4425 5.265 10.7513C5.265 9.76813 5.58594 8.93063 6.22781 8.23875C5.92781 7.49938 5.95625 6.67063 6.31313 5.7525C6.54938 5.67875 6.89906 5.73344 7.36219 5.91656C7.82531 6.09969 8.16469 6.25594 8.38031 6.38531C8.59594 6.51656 8.76875 6.62656 8.89875 6.71531C9.66084 6.50282 10.4485 6.3962 11.2397 6.39844C12.0447 6.39844 12.8253 6.50406 13.5816 6.71531L14.0447 6.42281C14.4009 6.20894 14.7767 6.02938 15.1669 5.88656C15.5975 5.72406 15.9269 5.67938 16.155 5.7525C16.5206 6.67125 16.5528 7.50031 16.2516 8.23969C16.8941 8.93031 17.2153 9.76781 17.2153 10.7522C17.2153 11.4434 17.1319 12.055 16.965 12.5869C16.7988 13.1194 16.5834 13.5463 16.3191 13.8675C16.043 14.1966 15.7083 14.4716 15.3319 14.6784C14.9381 14.8978 14.5559 15.0563 14.1853 15.1538C13.7749 15.2585 13.3571 15.3321 12.9356 15.3741C13.3575 15.7397 13.5688 16.3166 13.5694 17.1047V20.0203C13.5694 20.1578 13.5897 20.2694 13.6303 20.355C13.6493 20.3961 13.6763 20.433 13.7098 20.4634C13.7433 20.4938 13.7826 20.5172 13.8253 20.5322C13.9147 20.5647 13.9941 20.5847 14.0634 20.5922C14.1328 20.6009 14.2322 20.605 14.3616 20.6044H17.0934C18.0609 20.6044 18.8881 20.2609 19.575 19.5741C20.2619 18.8872 20.6053 18.06 20.6053 17.0925V5.38688C20.6053 4.41938 20.2625 3.59219 19.575 2.90531Z" fill="#808080"/>
</svg>
