<svg width="22" height="22" viewBox="0 0 22 22" fill="none" xmlns="http://www.w3.org/2000/svg">
<path d="M11.9166 8.25001H16.9583L11.9166 3.20834V8.25001ZM5.49996 1.83334H12.8333L18.3333 7.33334V18.3333C18.3333 18.8196 18.1401 19.2859 17.7963 19.6297C17.4525 19.9735 16.9862 20.1667 16.5 20.1667H5.49996C5.01373 20.1667 4.54741 19.9735 4.2036 19.6297C3.85978 19.2859 3.66663 18.8196 3.66663 18.3333V3.66668C3.66663 2.64918 4.48246 1.83334 5.49996 1.83334ZM12.8333 18.3333V17.4167C12.8333 16.1975 10.3858 15.5833 9.16663 15.5833C7.94746 15.5833 5.49996 16.1975 5.49996 17.4167V18.3333H12.8333ZM9.16663 11C8.6804 11 8.21408 11.1932 7.87026 11.537C7.52645 11.8808 7.33329 12.3471 7.33329 12.8333C7.33329 13.3196 7.52645 13.7859 7.87026 14.1297C8.21408 14.4735 8.6804 14.6667 9.16663 14.6667C9.65286 14.6667 10.1192 14.4735 10.463 14.1297C10.8068 13.7859 11 13.3196 11 12.8333C11 12.3471 10.8068 11.8808 10.463 11.537C10.1192 11.1932 9.65286 11 9.16663 11Z" fill="#808080"/>
</svg>
